<?xml version="1.0" encoding="utf-8"?>
<!-- Generator: Adobe Illustrator 23.0.1, SVG Export Plug-In . SVG Version: 6.00 Build 0)  -->
<svg version="1.1" id="Layer_1" xmlns="http://www.w3.org/2000/svg" xmlns:xlink="http://www.w3.org/1999/xlink" x="0px" y="0px"
	 viewBox="0 0 1224 792" style="enable-background:new 0 0 1224 792;" xml:space="preserve">
<style type="text/css">
	.st0{fill:#040202;}
</style>
<path id="XMLID_203_" class="st0" d="M560.68,86.61c-166.44,0-301.37,134.93-301.37,301.37s134.93,301.37,301.37,301.37
	s301.37-134.93,301.37-301.37S727.12,86.61,560.68,86.61z M727.24,194.49h-26.62h-24.69H446.4h-10.48h-41.8
	c44.71-38.52,102.91-61.81,166.56-61.81S682.53,155.97,727.24,194.49z M480.08,238.72H642l-81.25,105.95L480.08,238.72z
	 M641.28,537.23H479.35l81.25-105.95L641.28,537.23z M305.38,387.98c0-73.39,30.97-139.55,80.55-186.12l141.66,186.06l-142.3,185.57
	C336.08,526.95,305.38,461.05,305.38,387.98z M394.12,581.46h51.32v0h229.52v0h52.28c-44.71,38.52-102.91,61.81-166.56,61.81
	S438.83,619.99,394.12,581.46z M735.43,574.09L593.76,388.03l142.3-185.57c49.21,46.54,79.91,112.44,79.91,185.51
	C815.98,461.37,785.01,527.52,735.43,574.09z"/>
</svg>
